<svg xmlns="http://www.w3.org/2000/svg" viewBox="0 0 32 32">
    <path d="M16 0H2.5v24.5L16 32l13.5-7.5V0z" />
    <path fill="#999" d="M29.5 6.705l-1.668 1.668v17.053L29.5 24.5zM2.5 6.705V24.5l1.668.926V8.373z" />
    <path fill="#FFF" d="M23.247 19.927v-5.36c0-2.872-1.533-4.208-3.577-4.208-1.649 0-2.388.907-2.8 1.544v-1.324h-3.107c.041.877 0 9.348 0 9.348h3.107v-5.221c0-.279.02-.558.103-.757.224-.558.735-1.136 1.593-1.136 1.125 0 1.574.857 1.574 2.113v5.001h3.107zM10.49 9.303c1.083 0 1.758-.718 1.758-1.616-.02-.917-.675-1.614-1.738-1.614s-1.757.697-1.757 1.614c0 .897.675 1.616 1.717 1.616h.02zm1.553 10.624v-9.348H8.937v9.348h3.106z" />
</svg>