<svg xmlns="http://www.w3.org/2000/svg" enable-background="new 0 0 32 32" viewBox="0 0 32 32"><rect width="20" height="20" x="-80.662" y="-38.511" fill="#E2E2E2" display="none"/><rect width="30" height="30" x="1" y="1" fill="#FFF"/><rect width="29" height="29" x="1.5" y="1.5" fill="#FFF"/><path fill="#0F77EA" d="M30,2v28H2V2H30 M31,1H1v30h30V1L31,1z"/><g><path fill="#000" d="M28.989,28.989H3.01V3.01h25.979V28.989z M3.51,28.489h24.979V3.51H3.51V28.489z"/></g><path d="M23.872,22.524v-5.822c0-3.119-1.665-4.571-3.885-4.571c-1.792,0-2.594,0.986-3.042,1.677V12.37H13.57   c0.045,0.953,0,10.154,0,10.154h3.375v-5.671c0-0.303,0.022-0.606,0.111-0.823c0.244-0.606,0.799-1.234,1.731-1.234   c1.222,0,1.71,0.931,1.71,2.296v5.433L23.872,22.524L23.872,22.524z M10.015,10.984c1.177,0,1.91-0.78,1.91-1.755   c-0.022-0.996-0.733-1.754-1.887-1.754S8.128,8.233,8.128,9.229c0,0.975,0.733,1.755,1.866,1.755H10.015z M11.702,22.524V12.37   H8.327v10.154H11.702z"/><g display="none"><rect width="29" height="29" x="1.5" y="1.5" fill="#FFF"/><path d="M30,2v28H2V2H30 M31,1H1v30h30V1L31,1z"/><rect width="29" height="29" x="1.5" y="1.5" fill="#FFF"/><path d="M30,2v28H2V2H30 M31,1H1v30h30V1L31,1z"/><rect width="25.48" height="25.48" x="3.26" y="3.26" fill="none" stroke="#CCC" stroke-miterlimit="10" stroke-width=".5"/><g><path d="M23.872,22.524v-5.822c0-3.119-1.665-4.571-3.885-4.571c-1.792,0-2.594,0.986-3.042,1.677V12.37H13.57    c0.045,0.953,0,10.154,0,10.154h3.375v-5.671c0-0.303,0.022-0.606,0.111-0.823c0.244-0.606,0.799-1.234,1.731-1.234    c1.222,0,1.71,0.931,1.71,2.296v5.433L23.872,22.524L23.872,22.524z M10.015,10.984c1.177,0,1.91-0.78,1.91-1.755    c-0.022-0.996-0.733-1.754-1.887-1.754S8.128,8.233,8.128,9.229c0,0.975,0.733,1.755,1.866,1.755H10.015z M11.702,22.524V12.37    H8.327v10.154H11.702z"/></g></g><g display="none"><rect width="29" height="29" x="1.5" y="1.5" fill="#FFF"/><path d="M30,2v28H2V2H30 M31,1H1v30h30V1L31,1z"/><rect width="29" height="29" x="1.5" y="1.5" fill="#FFF"/><path d="M30,2v28H2V2H30 M31,1H1v30h30V1L31,1z"/><rect width="25.48" height="25.48" x="3.26" y="3.26" fill="none" stroke="#CCC" stroke-miterlimit="10" stroke-width=".5"/><g><path fill="#0F77EA" d="M23.872,22.524v-5.822c0-3.119-1.665-4.571-3.885-4.571c-1.792,0-2.594,0.986-3.042,1.677V12.37H13.57    c0.045,0.953,0,10.154,0,10.154h3.375v-5.671c0-0.303,0.022-0.606,0.111-0.823c0.244-0.606,0.799-1.234,1.731-1.234    c1.222,0,1.71,0.931,1.71,2.296v5.433L23.872,22.524L23.872,22.524z M10.015,10.984c1.177,0,1.91-0.78,1.91-1.755    c-0.022-0.996-0.733-1.754-1.887-1.754S8.128,8.233,8.128,9.229c0,0.975,0.733,1.755,1.866,1.755H10.015z M11.702,22.524V12.37    H8.327v10.154H11.702z"/></g></g></svg>